<svg width="25" height="24" fill="none" xmlns="http://www.w3.org/2000/svg"><path d="M7.015 0C3.146 0 0 3.125 0 6.965v10.072C0 20.877 3.146 24 7.015 24h10.206c3.87 0 7.015-3.123 7.015-6.963V6.965C24.236 3.125 21.09 0 17.221 0H7.015zm0 2.063h10.206c2.754 0 4.939 2.169 4.939 4.902v10.072c0 2.733-2.185 4.9-4.939 4.9H7.015c-2.754 0-4.937-2.167-4.937-4.9V6.965c0-2.733 2.183-4.902 4.937-4.902zm11.608 2.063c-.803 0-1.454.646-1.454 1.443s.65 1.443 1.454 1.443c.803 0 1.453-.646 1.453-1.443s-.65-1.443-1.453-1.443zm-6.505 1.695C8.692 5.82 5.893 8.599 5.893 12c0 3.4 2.8 6.18 6.225 6.18 3.426 0 6.227-2.78 6.227-6.18s-2.8-6.18-6.227-6.18zm0 2.063c2.303 0 4.148 1.83 4.148 4.116 0 2.286-1.845 4.116-4.148 4.116S7.972 14.286 7.972 12c0-2.286 1.843-4.116 4.146-4.116z" fill="#5C5C50"/></svg>