<svg width="29" height="22" fill="none" xmlns="http://www.w3.org/2000/svg"><path d="M28.335 2.604c-1.042.442-2.163.74-3.338.875 1.2-.688 2.12-1.776 2.555-3.073a11.956 11.956 0 01-3.692 1.348A5.933 5.933 0 0019.618 0c-3.21 0-5.813 2.486-5.813 5.554 0 .435.051.86.15 1.265-4.83-.23-9.114-2.443-11.98-5.802a5.33 5.33 0 00-.788 2.791c0 1.928 1.026 3.627 2.586 4.624a5.988 5.988 0 01-2.633-.695 1.464 1.464 0 000 .07c0 2.691 2.003 4.935 4.662 5.446a6.07 6.07 0 01-2.625.095c.74 2.206 2.887 3.812 5.43 3.857a12.018 12.018 0 01-7.22 2.378c-.469 0-.932-.027-1.387-.078A17.02 17.02 0 008.912 22c10.691 0 16.537-8.463 16.537-15.803 0-.24-.006-.48-.016-.717a11.56 11.56 0 002.9-2.876" fill="#5C5C50"/></svg>