<svg width="25" height="24" viewBox="0 0 25 24" fill="none" xmlns="http://www.w3.org/2000/svg">
<path d="M7.01497 0C3.14616 0 0 3.12481 0 6.96524V17.0365C0 20.8769 3.14616 24 7.01497 24H17.2214C21.0902 24 24.2364 20.8769 24.2364 17.0365V6.96524C24.2364 3.12481 21.0902 0 17.2214 0H7.01497V0ZM7.01497 2.06322H17.2214C19.9749 2.06322 22.1597 4.23197 22.1597 6.96524V17.0365C22.1597 19.7698 19.9749 21.9368 17.2214 21.9368H7.01497C4.26148 21.9368 2.07844 19.7698 2.07844 17.0365V6.96524C2.07844 4.23197 4.26148 2.06322 7.01497 2.06322ZM18.6227 4.12641C17.8198 4.12641 17.1693 4.77212 17.1693 5.56909C17.1693 6.36609 17.8198 7.01178 18.6227 7.01178C19.4256 7.01178 20.0761 6.36609 20.0761 5.56909C20.0761 4.77212 19.4256 4.12641 18.6227 4.12641ZM12.1182 5.82073C8.69238 5.82073 5.89328 8.5993 5.89328 12C5.89328 15.4007 8.69238 18.1793 12.1182 18.1793C15.5441 18.1793 18.3449 15.4007 18.3449 12C18.3449 8.5993 15.5441 5.82073 12.1182 5.82073ZM12.1182 7.88395C14.421 7.88395 16.2664 9.71415 16.2664 12C16.2664 14.2859 14.421 16.1161 12.1182 16.1161C9.81546 16.1161 7.97172 14.2859 7.97172 12C7.97172 9.71415 9.81546 7.88395 12.1182 7.88395Z" fill="#5C5C50"/>
</svg>
