<svg width="130" height="34" viewBox="0 0 130 34" fill="none" xmlns="http://www.w3.org/2000/svg">
<path d="M39.558 12.888C40.118 12.888 40.594 12.9673 40.986 13.126C41.378 13.2846 41.7607 13.5086 42.134 13.798C42.2367 13.882 42.3253 13.924 42.4 13.924C42.5867 13.924 42.708 13.644 42.764 13.084H43.086C43.0487 13.7186 43.03 14.848 43.03 16.472H42.708C42.624 15.7813 42.512 15.254 42.372 14.89C42.232 14.526 41.994 14.2086 41.658 13.938C41.4247 13.714 41.154 13.546 40.846 13.434C40.538 13.3126 40.216 13.252 39.88 13.252C38.9373 13.252 38.2373 13.714 37.78 14.638C37.3227 15.5526 37.094 16.696 37.094 18.068C37.094 19.4306 37.332 20.5693 37.808 21.484C38.284 22.3986 38.9933 22.856 39.936 22.856C40.2533 22.856 40.566 22.8 40.874 22.688C41.1913 22.5666 41.4573 22.394 41.672 22.17C42.0173 21.9086 42.2553 21.582 42.386 21.19C42.526 20.798 42.6333 20.224 42.708 19.468H43.03C43.03 21.1573 43.0487 22.3333 43.086 22.996H42.764C42.736 22.6973 42.694 22.4873 42.638 22.366C42.5913 22.2353 42.5213 22.17 42.428 22.17C42.3533 22.17 42.2553 22.2073 42.134 22.282C41.714 22.5806 41.3127 22.8093 40.93 22.968C40.5473 23.1173 40.0853 23.192 39.544 23.192C38.5547 23.192 37.6867 22.9913 36.94 22.59C36.2027 22.1886 35.6287 21.61 35.218 20.854C34.8073 20.0886 34.602 19.1786 34.602 18.124C34.602 17.0973 34.812 16.1873 35.232 15.394C35.652 14.6006 36.2353 13.9846 36.982 13.546C37.738 13.1073 38.5967 12.888 39.558 12.888ZM51.3891 12.888C52.3784 12.888 53.2418 13.0886 53.9791 13.49C54.7258 13.8913 55.3044 14.4746 55.7151 15.24C56.1258 15.996 56.3311 16.9013 56.3311 17.956C56.3311 18.9826 56.1211 19.8926 55.7011 20.686C55.2811 21.4793 54.6931 22.0953 53.9371 22.534C53.1904 22.9726 52.3364 23.192 51.3751 23.192C50.3858 23.192 49.5178 22.9913 48.7711 22.59C48.0338 22.1886 47.4598 21.61 47.0491 20.854C46.6384 20.0886 46.4331 19.1786 46.4331 18.124C46.4331 17.0973 46.6431 16.1873 47.0631 15.394C47.4831 14.6006 48.0664 13.9846 48.8131 13.546C49.5691 13.1073 50.4278 12.888 51.3891 12.888ZM51.3331 13.14C50.8198 13.14 50.3671 13.35 49.9751 13.77C49.5831 14.1806 49.2798 14.7593 49.0651 15.506C48.8598 16.2526 48.7571 17.1066 48.7571 18.068C48.7571 19.0386 48.8738 19.8926 49.1071 20.63C49.3498 21.3673 49.6718 21.9366 50.0731 22.338C50.4838 22.7393 50.9364 22.94 51.4311 22.94C51.9444 22.94 52.3971 22.7346 52.7891 22.324C53.1811 21.904 53.4798 21.3206 53.6851 20.574C53.8998 19.8273 54.0071 18.9733 54.0071 18.012C54.0071 17.0413 53.8858 16.1873 53.6431 15.45C53.4098 14.7126 53.0878 14.1433 52.6771 13.742C52.2758 13.3406 51.8278 13.14 51.3331 13.14ZM68.4853 13.364C68.1773 13.4106 67.9486 13.49 67.7993 13.602C67.6593 13.714 67.5613 13.8913 67.5053 14.134C67.4586 14.3766 67.4353 14.736 67.4353 15.212V23.024L67.0993 23.01L66.7213 23.024L60.6453 15.324V20.7C60.6453 21.2506 60.6733 21.6566 60.7293 21.918C60.7853 22.17 60.9066 22.3566 61.0933 22.478C61.2799 22.59 61.5833 22.6693 62.0033 22.716V22.996C61.6393 22.968 61.1353 22.954 60.4913 22.954C59.9779 22.954 59.5719 22.968 59.2733 22.996V22.716C59.5813 22.6693 59.8053 22.59 59.9453 22.478C60.0946 22.366 60.1926 22.1886 60.2393 21.946C60.2953 21.7033 60.3233 21.344 60.3233 20.868V14.568C60.3233 14.2133 60.2953 13.9566 60.2393 13.798C60.1926 13.6393 60.0946 13.532 59.9453 13.476C59.8053 13.42 59.5813 13.3826 59.2733 13.364V13.084C59.5719 13.112 59.9779 13.126 60.4913 13.126C60.9579 13.126 61.3593 13.112 61.6953 13.084L67.1133 19.762V15.38C67.1133 14.8293 67.0853 14.428 67.0293 14.176C66.9733 13.9146 66.8519 13.728 66.6653 13.616C66.4786 13.4946 66.1753 13.4106 65.7553 13.364V13.084C66.1193 13.112 66.6233 13.126 67.2673 13.126C67.7899 13.126 68.1959 13.112 68.4853 13.084V13.364ZM81.6991 22.898C81.5404 23.9526 81.2184 24.6806 80.7331 25.082C80.5278 25.25 80.2664 25.3806 79.9491 25.474C79.6411 25.5766 79.3004 25.628 78.9271 25.628C78.4231 25.628 77.9238 25.5486 77.4291 25.39C76.9438 25.2313 76.3418 24.9933 75.6231 24.676C75.4458 24.6013 75.2498 24.5173 75.0351 24.424C74.8298 24.34 74.5964 24.2466 74.3351 24.144L73.9991 24.046C73.8218 24.1393 73.6258 24.2093 73.4111 24.256C73.2058 24.312 73.0098 24.34 72.8231 24.34C72.6271 24.34 72.4684 24.3073 72.3471 24.242C72.2258 24.186 72.1651 24.0973 72.1651 23.976C72.1651 23.724 72.4218 23.598 72.9351 23.598C73.2804 23.598 73.6351 23.6633 73.9991 23.794C74.3164 23.7006 74.6524 23.5746 75.0071 23.416C75.0724 23.388 75.1704 23.346 75.3011 23.29C75.4318 23.2433 75.5484 23.2013 75.6511 23.164C74.7831 23.08 74.0224 22.828 73.3691 22.408C72.7251 21.9786 72.2258 21.4 71.8711 20.672C71.5258 19.944 71.3531 19.0946 71.3531 18.124C71.3531 17.0973 71.5631 16.1873 71.9831 15.394C72.4031 14.6006 72.9864 13.9846 73.7331 13.546C74.4891 13.1073 75.3478 12.888 76.3091 12.888C77.2984 12.888 78.1618 13.0886 78.8991 13.49C79.6458 13.8913 80.2244 14.4746 80.6351 15.24C81.0458 15.996 81.2511 16.9013 81.2511 17.956C81.2511 18.9453 81.0551 19.832 80.6631 20.616C80.2711 21.3906 79.7204 22.002 79.0111 22.45C78.3018 22.898 77.4944 23.1406 76.5891 23.178C76.3651 23.206 76.1644 23.248 75.9871 23.304C75.8098 23.36 75.5998 23.4393 75.3571 23.542C75.0584 23.6726 74.7691 23.78 74.4891 23.864L75.6231 23.962C76.8084 24.0646 77.6624 24.116 78.1851 24.116C78.5304 24.116 78.8804 24.0926 79.2351 24.046C79.8138 23.9806 80.2711 23.8546 80.6071 23.668C80.9431 23.4906 81.2231 23.2106 81.4471 22.828L81.6991 22.898ZM73.6771 18.068C73.6771 19.0386 73.7938 19.8926 74.0271 20.63C74.2698 21.3673 74.5918 21.9366 74.9931 22.338C75.4038 22.7393 75.8564 22.94 76.3511 22.94C76.8644 22.94 77.3171 22.7346 77.7091 22.324C78.1011 21.904 78.3998 21.3206 78.6051 20.574C78.8198 19.8273 78.9271 18.9733 78.9271 18.012C78.9271 17.0413 78.8058 16.1873 78.5631 15.45C78.3298 14.7126 78.0078 14.1433 77.5971 13.742C77.1958 13.3406 76.7478 13.14 76.2531 13.14C75.7398 13.14 75.2871 13.35 74.8951 13.77C74.5031 14.1806 74.1998 14.7593 73.9851 15.506C73.7798 16.2526 73.6771 17.1066 73.6771 18.068ZM93.1383 13.364C92.8303 13.4106 92.6016 13.49 92.4523 13.602C92.3123 13.714 92.2143 13.8913 92.1583 14.134C92.1116 14.3766 92.0883 14.736 92.0883 15.212V18.922C92.0883 20.2566 91.897 21.246 91.5143 21.89C91.2623 22.3006 90.8983 22.6226 90.4223 22.856C89.9463 23.08 89.363 23.192 88.6723 23.192C87.5896 23.192 86.7496 22.9586 86.1523 22.492C85.723 22.1466 85.4336 21.7126 85.2843 21.19C85.135 20.658 85.0603 19.916 85.0603 18.964V14.568C85.0603 14.2133 85.0323 13.9566 84.9763 13.798C84.9296 13.6393 84.8316 13.532 84.6823 13.476C84.5423 13.42 84.3183 13.3826 84.0103 13.364V13.084C84.4863 13.112 85.2143 13.126 86.1943 13.126C87.165 13.126 87.907 13.112 88.4203 13.084V13.364C88.0843 13.3826 87.837 13.42 87.6783 13.476C87.529 13.532 87.4263 13.6393 87.3703 13.798C87.3143 13.9566 87.2863 14.2133 87.2863 14.568V19.846C87.2863 20.826 87.4263 21.5493 87.7063 22.016C87.9956 22.4733 88.4996 22.702 89.2183 22.702C90.1516 22.702 90.8096 22.3893 91.1923 21.764C91.575 21.1293 91.7663 20.2333 91.7663 19.076V15.38C91.7663 14.8386 91.7336 14.4373 91.6683 14.176C91.603 13.9146 91.477 13.728 91.2903 13.616C91.1036 13.4946 90.8096 13.4106 90.4083 13.364V13.084C90.763 13.112 91.267 13.126 91.9203 13.126C92.443 13.126 92.849 13.112 93.1383 13.084V13.364ZM103.505 20.868C103.505 21.7266 103.537 22.436 103.603 22.996C102.968 22.968 101.899 22.954 100.397 22.954C98.362 22.954 96.8406 22.968 95.8326 22.996V22.716C96.1406 22.6973 96.3646 22.66 96.5046 22.604C96.654 22.548 96.752 22.4406 96.7986 22.282C96.8546 22.1233 96.8826 21.8666 96.8826 21.512V14.568C96.8826 14.2133 96.8546 13.9566 96.7986 13.798C96.752 13.6393 96.654 13.532 96.5046 13.476C96.3646 13.42 96.1406 13.3826 95.8326 13.364V13.084C96.8406 13.112 98.362 13.126 100.397 13.126C101.769 13.126 102.744 13.112 103.323 13.084C103.257 13.8586 103.225 14.5493 103.225 15.156C103.225 15.5666 103.239 15.884 103.267 16.108H102.945C102.805 15.1093 102.553 14.4093 102.189 14.008C101.825 13.6066 101.311 13.406 100.649 13.406H100.075C99.7853 13.406 99.5753 13.4293 99.4446 13.476C99.314 13.5226 99.2253 13.616 99.1786 13.756C99.132 13.8866 99.1086 14.1013 99.1086 14.4V17.872H99.5566C100.051 17.872 100.425 17.69 100.677 17.326C100.938 16.962 101.12 16.528 101.223 16.024H101.545C101.517 16.416 101.503 16.8546 101.503 17.34V18.012C101.503 18.488 101.531 19.1506 101.587 20H101.265C101.069 18.768 100.499 18.152 99.5566 18.152H99.1086V21.68C99.1086 21.9786 99.132 22.198 99.1786 22.338C99.2253 22.4686 99.314 22.5573 99.4446 22.604C99.5753 22.6506 99.7853 22.674 100.075 22.674H100.761C101.423 22.674 101.955 22.45 102.357 22.002C102.767 21.5446 103.057 20.7746 103.225 19.692H103.547C103.519 20 103.505 20.392 103.505 20.868ZM110.166 12.902C110.651 12.902 111.038 12.9486 111.328 13.042C111.617 13.1353 111.911 13.2706 112.21 13.448C112.312 13.504 112.401 13.5506 112.476 13.588C112.56 13.6253 112.63 13.644 112.686 13.644C112.77 13.644 112.835 13.5973 112.882 13.504C112.928 13.4013 112.966 13.2426 112.994 13.028H113.316C113.269 13.6533 113.246 14.7173 113.246 16.22H112.924C112.886 15.716 112.77 15.2353 112.574 14.778C112.387 14.3206 112.116 13.952 111.762 13.672C111.416 13.3826 111.01 13.238 110.544 13.238C110.086 13.238 109.713 13.3686 109.424 13.63C109.144 13.882 109.004 14.2273 109.004 14.666C109.004 14.9926 109.074 15.2773 109.214 15.52C109.354 15.7626 109.55 15.9866 109.802 16.192C110.054 16.388 110.441 16.6586 110.964 17.004L111.412 17.312C111.962 17.676 112.396 17.9933 112.714 18.264C113.031 18.5346 113.288 18.852 113.484 19.216C113.689 19.5706 113.792 19.986 113.792 20.462C113.792 21.0593 113.638 21.5633 113.33 21.974C113.022 22.3753 112.602 22.6786 112.07 22.884C111.547 23.0893 110.964 23.192 110.32 23.192C109.797 23.192 109.363 23.1453 109.018 23.052C108.672 22.9586 108.355 22.8326 108.066 22.674C107.86 22.5433 107.702 22.478 107.59 22.478C107.506 22.478 107.44 22.5293 107.394 22.632C107.347 22.7253 107.31 22.8793 107.282 23.094H106.96C106.997 22.506 107.016 21.246 107.016 19.314H107.338C107.403 20.3593 107.636 21.2086 108.038 21.862C108.439 22.506 109.055 22.828 109.886 22.828C110.39 22.828 110.805 22.6926 111.132 22.422C111.458 22.1513 111.622 21.764 111.622 21.26C111.622 20.7373 111.454 20.2893 111.118 19.916C110.782 19.5426 110.25 19.1226 109.522 18.656C108.962 18.292 108.514 17.9746 108.178 17.704C107.842 17.4333 107.566 17.116 107.352 16.752C107.137 16.3786 107.03 15.9493 107.03 15.464C107.03 14.904 107.17 14.4326 107.45 14.05C107.739 13.658 108.122 13.3686 108.598 13.182C109.074 12.9953 109.596 12.902 110.166 12.902ZM125.313 13.084C125.248 13.9706 125.215 14.764 125.215 15.464C125.215 15.9026 125.229 16.2573 125.257 16.528H124.935C124.711 15.38 124.403 14.5726 124.011 14.106C123.629 13.6393 123.101 13.406 122.429 13.406H122.107V21.4C122.107 21.792 122.145 22.0766 122.219 22.254C122.303 22.4313 122.443 22.5526 122.639 22.618C122.845 22.674 123.167 22.7066 123.605 22.716V22.996C122.429 22.968 121.543 22.954 120.945 22.954C120.357 22.954 119.503 22.968 118.383 22.996V22.716C118.822 22.7066 119.139 22.674 119.335 22.618C119.541 22.5526 119.681 22.4313 119.755 22.254C119.839 22.0766 119.881 21.792 119.881 21.4V13.406H119.573C119.125 13.406 118.743 13.504 118.425 13.7C118.117 13.896 117.851 14.2226 117.627 14.68C117.403 15.128 117.212 15.744 117.053 16.528H116.731C116.759 16.2573 116.773 15.9026 116.773 15.464C116.773 14.764 116.741 13.9706 116.675 13.084C117.525 13.112 118.967 13.126 121.001 13.126C123.036 13.126 124.473 13.112 125.313 13.084Z" fill="white"/>
<path d="M28.028 20.2408C27.2873 22.5741 25.6486 25.4606 22.4599 27.1696C20.5757 28.1794 18.5388 28.6135 16.5483 28.5338L16.6024 5.48597C17.1986 5.48622 17.9134 5.51602 18.6444 5.59904C18.9949 5.63885 19.3382 5.68976 19.6667 5.75243C20.391 5.92448 21.0982 6.16591 21.7775 6.47356C24.0086 7.48401 25.9361 9.20736 27.1834 11.5325C28.2127 13.4511 28.6439 15.5274 28.5433 17.5515C28.501 18.2347 28.3457 19.1869 28.028 20.2408ZM14.6014 5.74909L14.5485 28.2782C11.3556 27.5843 8.47862 25.55 6.81491 22.4488C3.79913 16.8274 5.91356 9.82634 11.5384 6.81176C12.1906 6.46221 13.2788 6.02968 14.6014 5.74909Z" stroke="url(#paint0_linear_6090_10)" stroke-width="2"/>
<defs>
<linearGradient id="paint0_linear_6090_10" x1="4.91415" y1="15.3303" x2="31.3539" y2="16.9911" gradientUnits="userSpaceOnUse">
<stop offset="0.288448" stop-color="white"/>
<stop offset="0.780176" stop-color="white" stop-opacity="0"/>
</linearGradient>
</defs>
</svg>
