<svg width="29" height="22" viewBox="0 0 29 22" fill="none" xmlns="http://www.w3.org/2000/svg">
<path d="M28.3347 2.60389C27.2927 3.04571 26.1722 3.34432 24.9965 3.47885C26.1964 2.79118 27.1178 1.70281 27.5518 0.406197C26.4288 1.04291 25.1851 1.50474 23.8604 1.75368C22.8006 0.67454 21.2898 0 19.6179 0C16.4074 0 13.8053 2.48645 13.8053 5.55376C13.8053 5.98922 13.8562 6.41324 13.9557 6.81947C9.12454 6.58815 4.84138 4.37639 1.97435 1.01656C1.47396 1.83647 1.18733 2.79038 1.18733 3.80839C1.18733 5.73552 2.21313 7.43519 3.77331 8.43154C2.82048 8.40308 1.92406 8.15313 1.14031 7.73684C1.1392 7.76024 1.13919 7.78332 1.13919 7.80655C1.13919 10.498 3.14313 12.7422 5.80207 13.2528C5.31473 13.3797 4.80131 13.4469 4.27111 13.4469C3.89617 13.4469 3.53264 13.413 3.17711 13.3478C3.91731 15.5543 6.06363 17.1602 8.60773 17.2051C6.61668 18.695 4.11067 19.5825 1.38707 19.5825C0.918193 19.5825 0.455117 19.5561 0 19.505C2.57354 21.0808 5.62858 22 8.91162 22C19.6033 22 25.4493 13.5374 25.4493 6.19745C25.4493 5.95676 25.4435 5.71772 25.433 5.47953C26.5682 4.69585 27.5536 3.71793 28.3334 2.60393" fill="#5C5C50"/>
</svg>
